# xmcd
#
# Track frame offsets:
#	150
#	18226
#	40036
#	55936
#	70804
#	85743
#	100287
#	119330
#	134672
#	155506
#	179425
#	196864
#
# Disc length: 2815 seconds
#
# Revision: 0
# Processed by: cddbd v1.5.2PL0 Copyright (c) Steve Scherf et al.
# Submitted via: EasyCDDAExtractor 12.0.1.1
#
DISCID=9e0afd0c
DTITLE=Tantowi Yahya - The Best of
DYEAR=2007
DGENRE=Country
TTITLE0=Jangan Pernah Berkata Benci
TTITLE1=Anggrek Bulan
TTITLE2=Oh Dewi
TTITLE3=Hidupku Sunyi
TTITLE4=Tak Sendiri Lagi
TTITLE5=Pertemuan Adam Hawa
TTITLE6=Patah Hati
TTITLE7=Sebiduk di Sungai Musi
TTITLE8=Kucari Jalan Terbaik
TTITLE9=Hidup Terkekang
TTITLE10=Selamat Tinggal
TTITLE11=Rindu Lukisan
EXTD=
EXTT0=
EXTT1=
EXTT2=
EXTT3=
EXTT4=
EXTT5=
EXTT6=
EXTT7=
EXTT8=
EXTT9=
EXTT10=
EXTT11=
PLAYORDER=
